<svg id="Layer_1" data-name="Layer 1" xmlns="http://www.w3.org/2000/svg" viewBox="0 0 1055.13 1080"><defs><style>.cls-1{fill:#225e99;}.cls-2{fill:#2f7af1;}</style></defs><path class="cls-1" d="M1076,1003.11l-57.33-57.33,441.73-441.73c6.57-6.58,16.76,2.58,10.91,9.81Z" transform="translate(-432.43)"/><path class="cls-1" d="M1478.56,348.89,1153.84,750.74l-70.59,87.39-5.16-5.16c1.28-4.13,2.54-8.34,3.77-12.68,9.93-34.95,17.76-75.14,23.33-118.77l362.46-362.46C1474.22,332.49,1484.41,341.65,1478.56,348.89Z" transform="translate(-432.43)"/><path class="cls-1" d="M1485.82,183.87l-317.3,392.7-57.81,71.57c2.82-34.77,4.26-71.08,4.26-108.14,0-2,0-4,0-6l360-360C1481.48,167.5,1491.67,176.66,1485.82,183.87Z" transform="translate(-432.43)"/><path class="cls-2" d="M1167.86,481.13C1157.46,210.56,1076.27,0,977.62,0H623.8C518.15,0,432.43,241.72,432.43,540c0,149.1,21.43,284.11,56.08,381.86,12.55,35.36,26.81,65.85,42.44,90.36,13.17,20.66,27.31,37,42.12,48.48,16.19,12.57,33.2,19.27,50.76,19.27H977.62c1.87,0,3.69,0,5.54-.23a68.08,68.08,0,0,0,15.78-3.11,72.34,72.34,0,0,0,7.55-2.79c.13,0,.18-.08.25-.11a67.42,67.42,0,0,0,7.16-3.49,2.52,2.52,0,0,1,.24-.15c22.32-12.14,43.26-35.29,62.1-67.34a0,0,0,0,0,0,0q7.82-13.23,15.09-28.46c1.54-3.23,3.07-6.54,4.56-9.9.77-1.7,1.52-3.41,2.26-5.11,2.34-5.28,4.6-10.7,6.83-16.27,2.69-6.77,5.34-13.83,7.9-21,3.93-11.14,7.73-22.77,11.29-34.88q6.71-22.29,12.4-46.58c1.31-5.41,2.57-10.88,3.77-16.45q1.62-7.23,3.11-14.65,5.8-28.33,10.36-58.67c.88-5.8,1.7-11.62,2.49-17.52q3-22.1,5.34-45.12t3.95-47q1.89-28.11,2.7-57.15c.08-2.44.15-4.91.2-7.37q.46-18.14.47-36.6Q1169,510.15,1167.86,481.13Zm-62.67,220.39c-5.57,43.63-13.4,83.82-23.33,118.77-1.23,4.34-2.49,8.55-3.77,12.68-24.9,80.27-59.28,120.95-102.32,120.95-45.22,0-80.92-45-106.09-133.63C848.33,745.07,836.57,645.53,836.57,540s11.76-205.07,33.11-280.29C894.83,171,930.53,126.08,975.77,126.08s80.91,45,106.09,133.63c20.94,73.81,32.67,171,33.08,274.34,0,2,0,4,0,6,0,37.06-1.44,73.37-4.26,108.14C1109.24,666.39,1107.39,684.23,1105.19,701.52Z" transform="translate(-432.43)"/><path class="cls-1" d="M975.81,926.52c.9,0,1.81,0,2.71-.12l.94-.12c.6-.07,1.19-.14,1.78-.24.39-.07.78-.16,1.16-.25s1-.2,1.54-.34.84-.24,1.26-.37.95-.28,1.43-.44.87-.33,1.31-.5.9-.35,1.34-.54.91-.42,1.37-.63l1.26-.63c.48-.24,1-.51,1.42-.77l1.19-.69c.49-.3,1-.61,1.46-.93l1.11-.75c.51-.35,1-.72,1.52-1.09.34-.25.67-.51,1-.78.53-.41,1.06-.84,1.59-1.28l.89-.77c.57-.48,1.13-1,1.69-1.5l.74-.7c.6-.58,1.21-1.17,1.81-1.78l.51-.54c.67-.7,1.35-1.41,2-2.16l.14-.16c44.34-49.61,76.47-195.8,76.47-368.44S1053.33,221.09,1009,171.52l-.1-.12c-.68-.76-1.37-1.48-2-2.19l-.48-.5c-.61-.63-1.22-1.22-1.84-1.81l-.71-.68c-.57-.52-1.14-1-1.71-1.52-.29-.25-.57-.51-.86-.75-.54-.45-1.08-.88-1.62-1.3l-1-.76c-.51-.38-1-.75-1.54-1.1-.36-.25-.72-.5-1.08-.73s-1-.64-1.49-.95l-1.16-.68q-.72-.41-1.44-.78c-.41-.22-.83-.42-1.24-.62s-.93-.44-1.39-.64-.88-.36-1.33-.53-.88-.35-1.32-.5-1-.3-1.42-.45-.84-.26-1.27-.37-1-.23-1.52-.34-.78-.18-1.18-.24c-.58-.11-1.16-.17-1.75-.24l-1-.12c-.9-.08-1.8-.12-2.71-.12h-.07c-.91,0-1.81,0-2.71.12-.32,0-.63.08-.95.12-.59.07-1.19.13-1.78.24-.38.06-.77.16-1.16.24s-1,.21-1.54.34-.84.25-1.26.37-1,.28-1.42.45-.88.32-1.31.5-.9.34-1.35.54-.91.41-1.36.63-.85.4-1.27.62-1,.51-1.42.78-.79.45-1.18.69-1,.61-1.47.93l-1.1.74c-.51.36-1,.72-1.52,1.1l-1,.77c-.54.42-1.07.84-1.6,1.29-.3.24-.59.5-.89.76-.56.49-1.12,1-1.69,1.51l-.73.69c-.6.58-1.21,1.17-1.82,1.79l-.51.54c-.67.7-1.34,1.41-2,2.15a1.15,1.15,0,0,0-.14.17c-20.16,22.54-37.77,65.08-51,120.94C907.41,359.55,917,445.81,917,540s-9.57,180.44-25.46,247.5c13.24,55.9,30.87,98.46,51.05,121l.08.1c.69.76,1.37,1.49,2.06,2.2.16.16.31.33.47.5.61.62,1.23,1.22,1.84,1.8l.71.68c.57.53,1.14,1,1.71,1.53l.87.74c.54.45,1.07.88,1.61,1.3l1,.76c.51.38,1,.75,1.54,1.11l1.09.73c.49.33,1,.64,1.48.94s.78.46,1.17.68.95.54,1.43.79l1.25.61c.46.22.92.44,1.38.64s.89.36,1.33.54l1.33.5c.47.16.94.3,1.41.44s.85.26,1.27.37,1,.24,1.52.34.79.18,1.18.25c.58.1,1.17.17,1.75.23.33,0,.65.1,1,.13.89.07,1.8.12,2.7.12h.08Z" transform="translate(-432.43)"/></svg>