<svg id="Layer_1" data-name="Layer 1" xmlns="http://www.w3.org/2000/svg" viewBox="0 0 1920 420.84"><defs><style>.cls-1{fill:#2f7af1;}.cls-2{fill:#225e99;}</style></defs><path class="cls-1" d="M521.24,478.19c-4.29,20.56-11.5,35.52-40.73,35.52a94.62,94.62,0,0,1-19-1.91l5.08-23.65a46,46,0,0,0,9.26.89c9.86,0,12-4.27,13.87-12.94l16.84-79.75h32.11Z" transform="translate(0 -329.58)"/><path class="cls-1" d="M660.61,395.94,556.24,512.5H540.39L644.86,395.94Zm-3,46.28c0,35-19.78,72.08-67.28,72.08-32.71,0-47.5-21.54-47.5-47.33,0-36.47,22.23-72.77,66.17-72.77C641.2,394.2,657.64,414.83,657.64,442.22Zm-83.08,24.37c0,14.08,5.78,24.93,19.32,24.93,22.22,0,32.35-30.36,32.35-50.54,0-13-5.5-23.94-19.65-23.94C586,417,574.56,447.21,574.56,466.59Z" transform="translate(0 -329.58)"/><path class="cls-1" d="M704.6,467.61l-9.34,44.54H663.39l24.55-115.8h49.77c24.74,0,37.65,12.27,37.65,30.42,0,15.75-9.42,26.4-23.85,30.51,6.22,2.71,13.71,9.75,9.79,28.59-2.56,12.09-4.41,21.26-3.87,26.28H726.81c-.68-5,.22-13.17,3.19-27.33,2.34-10.94,1.25-17.21-10.23-17.21Zm4.8-22.52h14.77c11,0,18.7-4.37,18.7-14.74,0-7-3.66-11.48-13.56-11.48H714.92Z" transform="translate(0 -329.58)"/><path class="cls-1" d="M879.69,512.15H856.62a52.24,52.24,0,0,1,.26-10.61c-7.32,9-17.29,12.76-32,12.76-28.06,0-41.73-20.25-41.73-47.08,0-35,20.93-73,66-73,30.92,0,46.48,16.85,46.71,37.9H863.82c-.22-6.45-3.85-14.85-17.18-14.85-21.55,0-29.95,30.46-29.95,49.41,0,14.49,5.13,24.12,17.95,24.12,15,0,19.76-9.77,22-20.52l.17-.62H835.53l5.29-23.54h52Z" transform="translate(0 -329.58)"/><path class="cls-1" d="M991.94,464.73H941.79l-5,23.45h57.32l-8.57,24H900.6l24.55-115.8h83.45l-5.07,24H951.32L947,440.76h50.15Z" transform="translate(0 -329.58)"/><path class="cls-1" d="M1004.06,512.15l24.55-115.8h39.5c5.84,28.55,14,63.06,15.71,78.83h.52c1.74-13.11,5.93-34.75,9.85-53.21l5.41-25.62h29.89l-24.55,115.8H1067.3c-5-23.56-14.85-67.9-16.35-82.84h-.45c-1.9,14.16-6.43,35.47-10.75,55.85l-5.69,27Z" transform="translate(0 -329.58)"/><path class="cls-1" d="M1160.29,475.93c.79,9.34,6.62,15.81,18.66,15.81,9.58,0,15.38-3.33,15.38-11.67,0-7.45-5.3-11.17-19-15.63-24.75-8.07-34.55-17.65-34.55-33.09,0-21.07,15.46-37.15,46.62-37.15,28.25,0,45.73,13.09,46.11,35.58H1202c-.22-5.29-2.5-12.86-15.11-12.86-7.62,0-13.19,3.24-13.19,10.27,0,5.46,4.23,8.92,17.81,13.32,25.85,8.36,36.64,18.68,36.64,35.66,0,22-16.12,38.13-51.05,38.13-31.9,0-47.72-15-48.39-38.37Z" transform="translate(0 -329.58)"/><path class="cls-1" d="M1329,464.73h-50.14l-5,23.45h57.32l-8.58,24h-84.93l24.54-115.8h83.45l-5.07,24H1288.4l-4.34,20.44h50.14Z" transform="translate(0 -329.58)"/><path class="cls-1" d="M1341.14,512.15l24.55-115.8h39.5c5.84,28.55,14,63.06,15.71,78.83h.52c1.74-13.11,5.93-34.75,9.85-53.21l5.41-25.62h29.89L1442,512.15h-37.64c-5-23.56-14.85-67.9-16.35-82.84h-.46c-1.89,14.16-6.43,35.47-10.74,55.85l-5.69,27Z" transform="translate(0 -329.58)"/><path class="cls-1" d="M1527.08,396.35h42.07c32.26,0,50.93,19,50.93,49.09,0,33.38-20,66.71-68.27,66.71h-49.28Zm12.58,92.57h14c20.89,0,32.65-21.13,32.65-44.51,0-16.77-7.11-24.83-21.11-24.83H1554.4Z" transform="translate(0 -329.58)"/><path class="cls-1" d="M1794.3,396.35l-5,24h-52.21l-4.28,20.44h50.14l-5.19,24H1727.6l-4.88,23.45h57.15l-8.8,24h-84.31l6-28.36H1661l-20,28.36H1607.4l84.53-115.8Zm-96.4,63.29,8.32-39h-.63l-27,39Z" transform="translate(0 -329.58)"/><path class="cls-1" d="M1814.5,396.35h32L1836.28,444c9.94-11.55,31-32.11,45.55-47.67H1920l-51.76,48.85,29.33,66.95h-34.73l-19.06-48.09-14.18,11.77L1822,512.15h-32Z" transform="translate(0 -329.58)"/><path class="cls-2" d="M763.51,622.51l-37.12,39.42c-17.28,18.16-28.07,31.65-56.68,31.65-25.09,0-38-14.91-38-32.37,0-18,12.24-29.28,42.21-39,17-5.67,22.85-12.84,22.85-20.76,0-4.43-2.09-8.71-7.64-8.71-6.06,0-9.14,4.84-9.14,10s2.16,10.46,8.67,16.19L755,691.49H717.35l-55.23-60.22c-6.13-7.23-10.36-15.06-10.36-24.18,0-19.07,13.1-33.37,37.57-33.37,23.64,0,34.26,13.57,34.26,27.77,0,15.1-9,24.86-38.3,34.64-19.36,6.62-23.73,13.3-23.73,20.38,0,6.78,4.93,12.71,14.34,12.71,10.7,0,17.24-5.93,32.08-21.89l22.94-24.82Z" transform="translate(0 -329.58)"/><path class="cls-2" d="M837.07,667.47l-11.29,24h-33.5L851.91,575.7h42.17l12,115.79H873.79l-2.07-24Zm34.28-24c-1.53-17.6-2.57-34.16-2.89-44.86H868c-5.14,12.71-12.45,28.2-20.47,44.86Z" transform="translate(0 -329.58)"/><path class="cls-2" d="M969.35,575.7l-15.59,73c-2.93,13.66,1.78,21.42,14.06,21.42,13,0,17.2-7.07,20.19-20l15.7-74.41h32.45l-15.61,73.12c-6.53,29.43-19.57,44.65-55.68,44.65-31.89,0-49.8-14.27-42.58-48.53l14.84-69.24Z" transform="translate(0 -329.58)"/><path class="cls-2" d="M1076.26,599.67H1044.5l5.19-24h95.51l-5.19,24h-31.53l-19.36,91.82H1056.9Z" transform="translate(0 -329.58)"/><path class="cls-2" d="M1255.39,622.57c0,34.68-19.06,71.08-66.4,71.08-33.87,0-48.38-21.64-48.38-47.34,0-34.77,21.25-72.76,65.4-72.76C1240.16,573.55,1255.39,595.7,1255.39,622.57Zm-81.49,24.32c0,13.86,5.56,23.29,18.63,23.29,22.22,0,30.14-30.59,30.14-49.6,0-12.9-4.39-23.57-18.23-23.57C1183.6,597,1173.9,627,1173.9,646.89Z" transform="translate(0 -329.58)"/><path class="cls-2" d="M1295.83,599.67h-31.76l5.19-24h95.5l-5.18,24h-31.53l-19.36,91.82h-32.22Z" transform="translate(0 -329.58)"/><path class="cls-2" d="M1446.57,644.08h-50.15l-5,23.45h57.32l-8.57,24h-84.94l24.54-115.79h83.45l-5.07,24H1406l-4.34,20.44h50.15Z" transform="translate(0 -329.58)"/><path class="cls-2" d="M1483.35,575.7h31.94l-10.17,47.66c9.94-11.54,31.06-32.11,45.55-47.66h38.17l-51.76,48.85,29.33,66.94h-34.73l-19.06-48.09-14.18,11.77-7.59,36.32h-32Z" transform="translate(0 -329.58)"/><path class="cls-2" d="M1574.35,691.49,1598.9,575.7h39.5c5.85,28.55,14,63.06,15.72,78.83h.51c1.74-13.11,5.94-34.75,9.85-53.22l5.41-25.61h29.89l-24.55,115.79h-37.64c-5-23.56-14.84-67.89-16.35-82.83h-.45c-1.89,14.16-6.43,35.46-10.74,55.85l-5.7,27Z" transform="translate(0 -329.58)"/><path class="cls-2" d="M1755.87,575.7l-24.55,115.79H1699l24.55-115.79Z" transform="translate(0 -329.58)"/><path class="cls-2" d="M1779.74,575.7h31.94l-10.17,47.66c9.94-11.54,31.06-32.11,45.55-47.66h38.17l-51.75,48.85,29.33,66.94h-34.74L1809,643.4l-14.18,11.77-7.58,36.32h-32.06Z" transform="translate(0 -329.58)"/><path class="cls-2" d="M250.77,720.46l-22.34-22.34L400.56,526a2.86,2.86,0,0,1,4.25,3.83Z" transform="translate(0 -329.58)"/><path class="cls-2" d="M407.64,465.53,281.11,622.12l-27.51,34-2-2c.5-1.61,1-3.25,1.47-4.94a319.38,319.38,0,0,0,9.09-46.28L403.39,461.7A2.86,2.86,0,0,1,407.64,465.53Z" transform="translate(0 -329.58)"/><path class="cls-2" d="M410.47,401.23l-123.64,153L264.3,582.14c1.1-13.55,1.66-27.7,1.66-42.14,0-.77,0-1.55,0-2.32L406.22,397.41A2.86,2.86,0,0,1,410.47,401.23Z" transform="translate(0 -329.58)"/><path class="cls-1" d="M286.57,517.06c-4.05-105.43-35.69-187.48-74.13-187.48H74.57C33.4,329.58,0,423.77,0,540c0,58.1,8.35,110.71,21.85,148.8C26.74,702.59,32.3,714.47,38.39,724c5.13,8.05,10.64,14.43,16.41,18.89,6.31,4.9,12.94,7.51,19.78,7.51H212.44c.73,0,1.44,0,2.16-.09a26.59,26.59,0,0,0,6.15-1.21,27.45,27.45,0,0,0,2.94-1.09c.05,0,.07,0,.1,0a27.55,27.55,0,0,0,2.79-1.36l.09-.06c8.7-4.73,16.86-13.75,24.2-26.24h0q3-5.16,5.88-11.09c.6-1.26,1.2-2.55,1.78-3.86.3-.66.59-1.33.88-2,.91-2.06,1.79-4.17,2.66-6.34,1.05-2.64,2.08-5.39,3.08-8.2,1.53-4.34,3-8.87,4.4-13.59q2.61-8.68,4.83-18.15c.51-2.11,1-4.24,1.47-6.41q.63-2.82,1.21-5.71,2.26-11,4-22.86c.34-2.26.66-4.53,1-6.83q1.17-8.61,2.08-17.58t1.54-18.32q.74-10.95,1.05-22.27c0-1,.06-1.91.08-2.87q.18-7.07.18-14.26Q287,528.37,286.57,517.06Zm-24.42,85.88a319.38,319.38,0,0,1-9.09,46.28c-.48,1.69-1,3.33-1.47,4.94-9.7,31.28-23.1,47.13-39.87,47.13-17.62,0-31.53-17.52-41.34-52.07-8.32-29.31-12.9-68.1-12.9-109.22s4.58-79.91,12.9-109.22c9.8-34.55,23.71-52.07,41.34-52.07s31.53,17.52,41.34,52.07c8.16,28.76,12.73,66.64,12.89,106.9,0,.77,0,1.55,0,2.32,0,14.44-.56,28.59-1.66,42.14C263.73,589.25,263,596.2,262.15,602.94Z" transform="translate(0 -329.58)"/><path class="cls-2" d="M211.74,690.61c.35,0,.7,0,1,0l.37-.05c.23,0,.46,0,.69-.09l.46-.1.59-.13c.17,0,.33-.1.5-.15l.55-.17.51-.19.53-.21.53-.25L218,689l.55-.31a4.25,4.25,0,0,0,.46-.27c.2-.11.39-.23.58-.36l.43-.29.59-.42L221,687c.21-.16.42-.32.63-.5l.34-.29.66-.59.29-.27.7-.7.2-.21c.26-.27.53-.55.79-.84l0-.06c17.28-19.33,29.8-76.3,29.8-143.57s-12.53-124.27-29.81-143.58l0-.05c-.27-.3-.53-.58-.8-.86l-.19-.19c-.23-.24-.47-.47-.71-.7l-.28-.27c-.22-.2-.44-.4-.67-.59l-.33-.29L221,393l-.39-.3-.6-.43-.42-.28-.58-.37-.45-.26L218,391l-.49-.24-.54-.25-.52-.21-.51-.19-.55-.18-.5-.14-.59-.13-.46-.1-.68-.09-.38-.05c-.35,0-.7,0-1.06,0h0c-.35,0-.7,0-1,0l-.37.05c-.23,0-.46,0-.69.09l-.46.1-.6.13-.49.14c-.18.06-.37.11-.55.18l-.51.19-.53.21-.53.25-.49.24-.55.3-.47.27-.57.37-.43.29c-.2.13-.39.27-.59.42l-.4.3-.62.5-.34.3-.66.59-.28.27c-.24.23-.48.46-.71.7l-.2.21c-.27.27-.53.55-.79.84l0,.06c-7.86,8.78-14.72,25.36-19.88,47.13,6.19,26.12,9.93,59.74,9.93,96.44s-3.74,70.31-9.93,96.44c5.17,21.78,12,38.37,19.9,47.15l0,0c.27.29.53.58.8.85l.18.2.72.7.28.27.66.59.34.29c.21.18.42.34.63.51l.39.29c.2.15.4.3.6.43l.42.29.58.37.45.26.56.31.49.24.54.25.51.2.52.2.55.17c.17.05.33.11.5.15l.59.13.46.1.68.09.38.05c.35,0,.7,0,1,0h0Z" transform="translate(0 -329.58)"/></svg>